<svg xmlns="http://www.w3.org/2000/svg" viewBox="0 0 1200 740" role="img" aria-labelledby="title desc">
  <title id="title">AIO runtime architecture</title>
  <desc id="desc">Runtime architecture for the AIO enterprise AI knowledge platform.</desc>
  <defs>
    <marker id="arrow" viewBox="0 0 10 10" refX="9" refY="5" markerWidth="9" markerHeight="9" orient="auto-start-reverse">
      <path d="M 0 0 L 10 5 L 0 10 z" fill="#334155"/>
    </marker>
    <style>
      .bg { fill: #f8fafc; }
      .lane { fill: #ffffff; stroke: #cbd5e1; stroke-width: 2; }
      .node rect { stroke-width: 2; rx: 12; }
      .client rect { fill: #e0f2fe; stroke: #0284c7; }
      .api rect { fill: #ecfdf5; stroke: #059669; }
      .service rect { fill: #fef3c7; stroke: #d97706; }
      .store rect { fill: #fce7f3; stroke: #db2777; }
      .model rect { fill: #ede9fe; stroke: #7c3aed; }
      .node text { font-family: -apple-system, BlinkMacSystemFont, "Segoe UI", sans-serif; fill: #0f172a; }
      .title { font-size: 20px; font-weight: 800; }
      .body { font-size: 15px; font-weight: 600; fill: #334155; }
      .label { font-size: 18px; font-weight: 800; fill: #475569; }
      .arrow { fill: none; stroke: #334155; stroke-width: 2.5; marker-end: url(#arrow); }
      .dash { fill: none; stroke: #64748b; stroke-width: 2.2; stroke-dasharray: 8 8; marker-end: url(#arrow); }
    </style>
  </defs>

  <rect class="bg" x="0" y="0" width="1200" height="740"/>
  <text class="label" x="60" y="48">Client and Edge</text>
  <text class="label" x="365" y="48">API Boundary</text>
  <text class="label" x="665" y="48">Application Services</text>
  <text class="label" x="960" y="48">Data and Models</text>

  <g class="node client">
    <rect x="50" y="78" width="250" height="126"/>
    <text x="76" y="115" class="title">Vue 3 AIO Console</text>
    <text x="76" y="146" class="body">
      <tspan x="76" dy="0">Knowledge Archive</tspan>
      <tspan x="76" dy="22">Document Storage</tspan>
      <tspan x="76" dy="22">Agent Builder, Playground</tspan>
    </text>
  </g>

  <g class="node client">
    <rect x="50" y="264" width="250" height="104"/>
    <text x="76" y="301" class="title">Nginx and SPA</text>
    <text x="76" y="332" class="body">
      <tspan x="76" dy="0">Static frontend</tspan>
      <tspan x="76" dy="22">Reverse proxy to API</tspan>
    </text>
  </g>

  <g class="node api">
    <rect x="370" y="146" width="250" height="146"/>
    <text x="396" y="183" class="title">FastAPI REST API</text>
    <text x="396" y="214" class="body">
      <tspan x="396" dy="0">160+ endpoints</tspan>
      <tspan x="396" dy="22">JWT permission dependency</tspan>
      <tspan x="396" dy="22">SSE progress streams</tspan>
    </text>
  </g>

  <g class="node service">
    <rect x="690" y="84" width="246" height="118"/>
    <text x="716" y="121" class="title">Knowledge Services</text>
    <text x="716" y="152" class="body">
      <tspan x="716" dy="0">Knowl, Dataset, Doc</tspan>
      <tspan x="716" dy="22">Folder, Dictionary, Config</tspan>
    </text>
  </g>

  <g class="node service">
    <rect x="690" y="246" width="246" height="118"/>
    <text x="716" y="283" class="title">Agent Services</text>
    <text x="716" y="314" class="body">
      <tspan x="716" dy="0">AgentFactory</tspan>
      <tspan x="716" dy="22">LangGraph workflow</tspan>
    </text>
  </g>

  <g class="node service">
    <rect x="690" y="408" width="246" height="118"/>
    <text x="716" y="445" class="title">Governance</text>
    <text x="716" y="476" class="body">
      <tspan x="716" dy="0">Account, Role, ACL</tspan>
      <tspan x="716" dy="22">AI model key management</tspan>
    </text>
  </g>

  <g class="node store">
    <rect x="986" y="78" width="164" height="92"/>
    <text x="1008" y="115" class="title">PostgreSQL</text>
    <text x="1008" y="146" class="body">RDB schemas</text>
  </g>

  <g class="node store">
    <rect x="986" y="202" width="164" height="92"/>
    <text x="1008" y="239" class="title">Redis + Celery</text>
    <text x="1008" y="270" class="body">Async jobs</text>
  </g>

  <g class="node store">
    <rect x="986" y="326" width="164" height="116"/>
    <text x="1008" y="363" class="title">Search Stores</text>
    <text x="1008" y="394" class="body">
      <tspan x="1008" dy="0">Milvus vectors</tspan>
      <tspan x="1008" dy="22">Neo4j graph</tspan>
      <tspan x="1008" dy="22">Elasticsearch</tspan>
    </text>
  </g>

  <g class="node model">
    <rect x="986" y="474" width="164" height="92"/>
    <text x="1008" y="511" class="title">Model APIs</text>
    <text x="1008" y="542" class="body">LLM, embed, rerank</text>
  </g>

  <path class="arrow" d="M300 141 H370"/>
  <path class="arrow" d="M300 316 H338 V219 H370"/>
  <path class="arrow" d="M620 219 H656 V143 H690"/>
  <path class="arrow" d="M620 219 H656 V305 H690"/>
  <path class="arrow" d="M620 219 H656 V467 H690"/>
  <path class="arrow" d="M936 143 H986"/>
  <path class="arrow" d="M936 305 H960 V248 H986"/>
  <path class="arrow" d="M936 305 H960 V384 H986"/>
  <path class="arrow" d="M936 467 H960 V520 H986"/>
  <path class="dash" d="M986 248 H950 V630 H175 V368"/>
  <text x="62" y="654" class="body">SSE progress returns upload and ingestion state to the Vue console.</text>
</svg>
