<svg xmlns="http://www.w3.org/2000/svg" viewBox="0 0 1200 720" role="img" aria-labelledby="title desc">
  <title id="title">AIO agent workflow builder</title>
  <desc id="desc">Agent workflow builder flow from Vue Flow canvas to LangGraph execution.</desc>
  <defs>
    <marker id="arrow" viewBox="0 0 10 10" refX="9" refY="5" markerWidth="9" markerHeight="9" orient="auto-start-reverse">
      <path d="M 0 0 L 10 5 L 0 10 z" fill="#334155"/>
    </marker>
    <style>
      .bg { fill: #f8fafc; }
      .node rect { stroke-width: 2; rx: 12; }
      .ui rect { fill: #e0f2fe; stroke: #0284c7; }
      .api rect { fill: #ecfdf5; stroke: #059669; }
      .graph rect { fill: #fef3c7; stroke: #d97706; }
      .nodekind rect { fill: #ede9fe; stroke: #7c3aed; }
      .store rect { fill: #fce7f3; stroke: #db2777; }
      .node text { font-family: -apple-system, BlinkMacSystemFont, "Segoe UI", sans-serif; fill: #0f172a; }
      .title { font-size: 19px; font-weight: 800; }
      .body { font-size: 15px; font-weight: 600; fill: #334155; }
      .caption { font-size: 17px; font-weight: 800; fill: #475569; }
      .arrow { fill: none; stroke: #334155; stroke-width: 2.5; marker-end: url(#arrow); }
      .dash { fill: none; stroke: #64748b; stroke-width: 2.2; stroke-dasharray: 8 8; marker-end: url(#arrow); }
    </style>
  </defs>

  <rect class="bg" x="0" y="0" width="1200" height="720"/>
  <text x="60" y="48" class="caption">Workflow Design</text>
  <text x="60" y="400" class="caption">Runtime Execution</text>

  <g class="node ui">
    <rect x="56" y="82" width="214" height="120"/>
    <text x="82" y="119" class="title">Vue Flow Canvas</text>
    <text x="82" y="150" class="body">
      <tspan x="82" dy="0">Drag nodes</tspan>
      <tspan x="82" dy="22">Connect edges</tspan>
      <tspan x="82" dy="22">Test chat panel</tspan>
    </text>
  </g>

  <g class="node ui">
    <rect x="330" y="82" width="220" height="120"/>
    <text x="356" y="119" class="title">Workflow Spec</text>
    <text x="356" y="150" class="body">
      <tspan x="356" dy="0">layer1, layer2</tspan>
      <tspan x="356" dy="22">layer3, metadata</tspan>
      <tspan x="356" dy="22">nodes and edges</tspan>
    </text>
  </g>

  <g class="node api">
    <rect x="610" y="82" width="218" height="120"/>
    <text x="636" y="119" class="title">Agent API</text>
    <text x="636" y="150" class="body">
      <tspan x="636" dy="0">/api/v1/agent</tspan>
      <tspan x="636" dy="22">save, update, stream</tspan>
    </text>
  </g>

  <g class="node graph">
    <rect x="888" y="82" width="244" height="120"/>
    <text x="914" y="119" class="title">AgentFactory</text>
    <text x="914" y="150" class="body">
      <tspan x="914" dy="0">YAML or JSON spec</tspan>
      <tspan x="914" dy="22">LangGraphAgent build</tspan>
    </text>
  </g>

  <g class="node nodekind">
    <rect x="130" y="270" width="190" height="94"/>
    <text x="154" y="307" class="title">Pre Retrieval</text>
    <text x="154" y="338" class="body">query expansion</text>
  </g>

  <g class="node nodekind">
    <rect x="370" y="270" width="190" height="94"/>
    <text x="394" y="307" class="title">Retrieval</text>
    <text x="394" y="338" class="body">Milvus, Elastic, KG</text>
  </g>

  <g class="node nodekind">
    <rect x="610" y="270" width="190" height="94"/>
    <text x="634" y="307" class="title">Post Retrieval</text>
    <text x="634" y="338" class="body">rerank, ensemble</text>
  </g>

  <g class="node nodekind">
    <rect x="850" y="270" width="190" height="94"/>
    <text x="874" y="307" class="title">Generation</text>
    <text x="874" y="338" class="body">LLM, RAG answer</text>
  </g>

  <g class="node graph">
    <rect x="120" y="436" width="234" height="118"/>
    <text x="146" y="473" class="title">Compiled StateGraph</text>
    <text x="146" y="504" class="body">
      <tspan x="146" dy="0">START to END</tspan>
      <tspan x="146" dy="22">conditional edges</tspan>
    </text>
  </g>

  <g class="node store">
    <rect x="430" y="436" width="234" height="118"/>
    <text x="456" y="473" class="title">Search Context</text>
    <text x="456" y="504" class="body">
      <tspan x="456" dy="0">chunks, entities</tspan>
      <tspan x="456" dy="22">relationships</tspan>
    </text>
  </g>

  <g class="node api">
    <rect x="740" y="436" width="234" height="118"/>
    <text x="766" y="473" class="title">SSE Response</text>
    <text x="766" y="504" class="body">
      <tspan x="766" dy="0">stream answer</tspan>
      <tspan x="766" dy="22">conversation history</tspan>
    </text>
  </g>

  <path class="arrow" d="M270 142 H330"/>
  <path class="arrow" d="M550 142 H610"/>
  <path class="arrow" d="M828 142 H888"/>
  <path class="arrow" d="M1010 202 V236 H225 V270"/>
  <path class="arrow" d="M320 317 H370"/>
  <path class="arrow" d="M560 317 H610"/>
  <path class="arrow" d="M800 317 H850"/>
  <path class="arrow" d="M945 364 V386 H237 V436"/>
  <path class="arrow" d="M354 495 H430"/>
  <path class="arrow" d="M664 495 H740"/>
  <path class="dash" d="M857 554 V636 H163 V202"/>
  <text x="60" y="668" class="body">The same workflow spec supports saved agents, preset execution, and test conversations in the frontend panel.</text>
</svg>
