<svg xmlns="http://www.w3.org/2000/svg" width="1280" height="720" viewBox="0 0 1280 720" role="img" aria-labelledby="title desc">
  <title id="title">Market Intelligence operations topology</title>
  <desc id="desc">Terraform defines Lambda agents, EventBridge schedule, S3 notifications, DynamoDB status, and Bedrock Knowledge Base sync while the frontend documents UI reads S3 outputs.</desc>
  <defs>
    <marker id="arrow" markerWidth="12" markerHeight="12" refX="10" refY="6" orient="auto" markerUnits="strokeWidth">
      <path d="M2,2 L10,6 L2,10 Z" fill="#334155"/>
    </marker>
    <style>
      .bg { fill: #f8fafc; }
      .zone { fill: #ffffff; stroke: #d8dee9; stroke-width: 2; rx: 24; }
      .zone-title { fill: #475569; font: 800 19px system-ui, -apple-system, Segoe UI, sans-serif; }
      .node rect { stroke-width: 2; rx: 16; }
      .node text { fill: #0f172a; font: 700 18px system-ui, -apple-system, Segoe UI, sans-serif; }
      .node .sub { fill: #475569; font: 500 14px system-ui, -apple-system, Segoe UI, sans-serif; }
      .ops rect { fill: #fdf2f8; stroke: #db2777; }
      .lambda rect { fill: #fff7ed; stroke: #ea580c; }
      .data rect { fill: #eef2ff; stroke: #4f46e5; }
      .front rect { fill: #e0f2fe; stroke: #0284c7; }
      .event rect { fill: #f0fdf4; stroke: #16a34a; }
      .line { fill: none; stroke: #334155; stroke-width: 3; marker-end: url(#arrow); }
      .label { fill: #64748b; font: 600 13px system-ui, -apple-system, Segoe UI, sans-serif; }
    </style>
  </defs>
  <rect class="bg" width="1280" height="720"/>
  <rect class="zone" x="48" y="64" width="360" height="540"/>
  <text class="zone-title" x="78" y="104">Infrastructure contract</text>
  <rect class="zone" x="460" y="64" width="360" height="540"/>
  <text class="zone-title" x="490" y="104">AWS execution</text>
  <rect class="zone" x="872" y="64" width="360" height="540"/>
  <text class="zone-title" x="902" y="104">Operator surfaces</text>

  <g class="node ops" transform="translate(88 145)">
    <rect width="280" height="98"/>
    <text x="24" y="36"><tspan>Terraform</tspan></text>
    <text class="sub" x="24" y="62"><tspan>KB intelligence module</tspan></text>
    <text class="sub" x="24" y="82"><tspan>Lambda and triggers</tspan></text>
  </g>
  <g class="node event" transform="translate(88 315)">
    <rect width="280" height="112"/>
    <text x="24" y="36"><tspan>Event Sources</tspan></text>
    <text class="sub" x="24" y="62"><tspan>daily EventBridge</tspan></text>
    <text class="sub" x="24" y="82"><tspan>S3 object created</tspan></text>
    <text class="sub" x="24" y="102"><tspan>daily_updates only</tspan></text>
  </g>

  <g class="node lambda" transform="translate(500 130)">
    <rect width="280" height="112"/>
    <text x="24" y="36"><tspan>KB Agent Lambdas</tspan></text>
    <text class="sub" x="24" y="62"><tspan>planner, researcher</tspan></text>
    <text class="sub" x="24" y="82"><tspan>competitor, tech</tspan></text>
    <text class="sub" x="24" y="102"><tspan>synthesizer</tspan></text>
  </g>
  <g class="node data" transform="translate(500 315)">
    <rect width="280" height="112"/>
    <text x="24" y="36"><tspan>S3 and DynamoDB</tspan></text>
    <text class="sub" x="24" y="62"><tspan>reports and status</tspan></text>
    <text class="sub" x="24" y="82"><tspan>workflow metadata</tspan></text>
    <text class="sub" x="24" y="102"><tspan>source data</tspan></text>
  </g>
  <g class="node lambda" transform="translate(500 500)">
    <rect width="280" height="98"/>
    <text x="24" y="36"><tspan>KB Sync Lambda</tspan></text>
    <text class="sub" x="24" y="62"><tspan>ingestion trigger</tspan></text>
    <text class="sub" x="24" y="82"><tspan>sync status JSON</tspan></text>
  </g>

  <g class="node front" transform="translate(912 145)">
    <rect width="280" height="98"/>
    <text x="24" y="36"><tspan>Documents UI</tspan></text>
    <text class="sub" x="24" y="62"><tspan>market tab</tspan></text>
    <text class="sub" x="24" y="82"><tspan>projects and workflows</tspan></text>
  </g>
  <g class="node data" transform="translate(912 315)">
    <rect width="280" height="98"/>
    <text x="24" y="36"><tspan>Bedrock KB</tspan></text>
    <text class="sub" x="24" y="62"><tspan>market intelligence</tspan></text>
    <text class="sub" x="24" y="82"><tspan>searchable corpus</tspan></text>
  </g>

  <path class="line" d="M368 194 H500"/>
  <path class="line" d="M368 371 H500"/>
  <path class="line" d="M640 242 V315"/>
  <path class="line" d="M640 427 V500"/>
  <path class="line" d="M780 371 H912"/>
  <text class="label" x="812" y="356">read S3 outputs</text>
  <path class="line" d="M780 549 H850 V364 H912"/>
  <text class="label" x="805" y="530">ingest reports</text>
</svg>
